<mxfile host="app.diagrams.net" agent="Mozilla/5.0 (Windows NT 10.0; Win64; x64) AppleWebKit/537.36 (KHTML, like Gecko) Chrome/135.0.0.0 Safari/537.36" version="26.2.13">
  <diagram name="Page-1" id="e7e014a7-5840-1c2e-5031-d8a46d1fe8dd">
    <mxGraphModel dx="2025" dy="1117" grid="1" gridSize="10" guides="1" tooltips="1" connect="1" arrows="1" fold="1" page="1" pageScale="1" pageWidth="1169" pageHeight="826" background="none" math="0" shadow="0">
      <root>
        <mxCell id="0" />
        <mxCell id="1" parent="0" />
        <mxCell id="3" value="Rserveation Userinterface" style="swimlane;whiteSpace=wrap;startSize=23;" parent="1" vertex="1">
          <mxGeometry x="1190" y="140" width="280" height="570" as="geometry" />
        </mxCell>
        <mxCell id="UKsslnW1uW5sjIxQK_6J-92" value="" style="edgeStyle=orthogonalEdgeStyle;curved=1;rounded=0;orthogonalLoop=1;jettySize=auto;html=1;" parent="3" source="UKsslnW1uW5sjIxQK_6J-88" target="UKsslnW1uW5sjIxQK_6J-91" edge="1">
          <mxGeometry relative="1" as="geometry" />
        </mxCell>
        <mxCell id="UKsslnW1uW5sjIxQK_6J-88" value="&lt;table&gt;&lt;tbody&gt;&lt;tr&gt;&lt;td data-end=&quot;2026&quot; data-start=&quot;1997&quot; class=&quot;max-w-[calc(var(--thread-content-max-width)*2/3)]&quot;&gt;Open Reservation Interface&lt;/td&gt;&lt;/tr&gt;&lt;/tbody&gt;&lt;/table&gt;&lt;table&gt;&lt;tbody&gt;&lt;tr&gt;&lt;td data-end=&quot;2043&quot; data-start=&quot;2026&quot; class=&quot;max-w-[calc(var(--thread-content-max-width)*2/3)]&quot;&gt;&lt;/td&gt;&lt;/tr&gt;&lt;/tbody&gt;&lt;/table&gt;" style="whiteSpace=wrap;html=1;" parent="3" vertex="1">
          <mxGeometry x="80" y="54" width="120" height="60" as="geometry" />
        </mxCell>
        <mxCell id="UKsslnW1uW5sjIxQK_6J-94" value="" style="edgeStyle=orthogonalEdgeStyle;curved=1;rounded=0;orthogonalLoop=1;jettySize=auto;html=1;" parent="3" source="UKsslnW1uW5sjIxQK_6J-91" target="UKsslnW1uW5sjIxQK_6J-93" edge="1">
          <mxGeometry relative="1" as="geometry" />
        </mxCell>
        <mxCell id="UKsslnW1uW5sjIxQK_6J-96" value="" style="edgeStyle=orthogonalEdgeStyle;curved=1;rounded=0;orthogonalLoop=1;jettySize=auto;html=1;" parent="3" source="UKsslnW1uW5sjIxQK_6J-93" target="UKsslnW1uW5sjIxQK_6J-95" edge="1">
          <mxGeometry relative="1" as="geometry" />
        </mxCell>
        <mxCell id="UKsslnW1uW5sjIxQK_6J-93" value="&#xa;&lt;table&gt;&lt;tbody&gt;&lt;tr&gt;&lt;td data-end=&quot;2134&quot; data-start=&quot;2119&quot; class=&quot;max-w-[calc(var(--thread-content-max-width)*2/3)]&quot;&gt;Click Search&lt;/td&gt;&lt;/tr&gt;&lt;/tbody&gt;&lt;/table&gt;&lt;table&gt;&lt;tbody&gt;&lt;tr&gt;&lt;td data-end=&quot;2149&quot; data-start=&quot;2134&quot; class=&quot;max-w-[calc(var(--thread-content-max-width)*2/3)]&quot;&gt;&lt;/td&gt;&lt;/tr&gt;&lt;/tbody&gt;&lt;/table&gt;&#xa;&#xa;" style="whiteSpace=wrap;html=1;" parent="3" vertex="1">
          <mxGeometry x="187.5" y="142" width="85" height="38" as="geometry" />
        </mxCell>
        <mxCell id="UKsslnW1uW5sjIxQK_6J-100" value="" style="edgeStyle=orthogonalEdgeStyle;curved=1;rounded=0;orthogonalLoop=1;jettySize=auto;html=1;" parent="3" source="UKsslnW1uW5sjIxQK_6J-95" target="UKsslnW1uW5sjIxQK_6J-99" edge="1">
          <mxGeometry relative="1" as="geometry" />
        </mxCell>
        <mxCell id="UKsslnW1uW5sjIxQK_6J-95" value="&#xa;&lt;table&gt;&lt;tbody&gt;&lt;tr&gt;&lt;td data-end=&quot;2196&quot; data-start=&quot;2169&quot; class=&quot;max-w-[calc(var(--thread-content-max-width)*2/3)]&quot;&gt;System Processes Request&lt;/td&gt;&lt;/tr&gt;&lt;/tbody&gt;&lt;/table&gt;&lt;table&gt;&lt;tbody&gt;&lt;tr&gt;&lt;td data-end=&quot;2215&quot; data-start=&quot;2196&quot; class=&quot;max-w-[calc(var(--thread-content-max-width)*2/3)]&quot;&gt;&lt;/td&gt;&lt;/tr&gt;&lt;/tbody&gt;&lt;/table&gt;&#xa;&#xa;" style="whiteSpace=wrap;html=1;" parent="3" vertex="1">
          <mxGeometry x="187.5" y="217" width="85" height="68" as="geometry" />
        </mxCell>
        <mxCell id="UKsslnW1uW5sjIxQK_6J-102" value="" style="edgeStyle=orthogonalEdgeStyle;curved=1;rounded=0;orthogonalLoop=1;jettySize=auto;html=1;" parent="3" source="UKsslnW1uW5sjIxQK_6J-99" target="UKsslnW1uW5sjIxQK_6J-101" edge="1">
          <mxGeometry relative="1" as="geometry" />
        </mxCell>
        <mxCell id="UKsslnW1uW5sjIxQK_6J-103" value="True" style="edgeLabel;html=1;align=center;verticalAlign=middle;resizable=0;points=[];" parent="UKsslnW1uW5sjIxQK_6J-102" vertex="1" connectable="0">
          <mxGeometry x="-0.0667" relative="1" as="geometry">
            <mxPoint as="offset" />
          </mxGeometry>
        </mxCell>
        <mxCell id="UKsslnW1uW5sjIxQK_6J-106" value="" style="edgeStyle=orthogonalEdgeStyle;curved=1;rounded=0;orthogonalLoop=1;jettySize=auto;html=1;" parent="3" source="UKsslnW1uW5sjIxQK_6J-99" target="UKsslnW1uW5sjIxQK_6J-105" edge="1">
          <mxGeometry relative="1" as="geometry" />
        </mxCell>
        <mxCell id="FkI9DOUWdkT_tzKeIRPb-62" value="False" style="edgeLabel;html=1;align=center;verticalAlign=middle;resizable=0;points=[];" vertex="1" connectable="0" parent="UKsslnW1uW5sjIxQK_6J-106">
          <mxGeometry x="-0.2417" y="4" relative="1" as="geometry">
            <mxPoint as="offset" />
          </mxGeometry>
        </mxCell>
        <mxCell id="UKsslnW1uW5sjIxQK_6J-99" value="System Resutlt" style="rhombus;whiteSpace=wrap;html=1;" parent="3" vertex="1">
          <mxGeometry x="87.5" y="302" width="80" height="80" as="geometry" />
        </mxCell>
        <mxCell id="UKsslnW1uW5sjIxQK_6J-101" value="&lt;table&gt;&lt;tbody&gt;&lt;tr&gt;&lt;td data-end=&quot;2323&quot; data-start=&quot;2292&quot; class=&quot;max-w-[calc(var(--thread-content-max-width)*2/3)]&quot;&gt;Display Available Classrooms&lt;/td&gt;&lt;/tr&gt;&lt;/tbody&gt;&lt;/table&gt;&lt;table&gt;&lt;tbody&gt;&lt;tr&gt;&lt;td data-end=&quot;2339&quot; data-start=&quot;2323&quot; class=&quot;max-w-[calc(var(--thread-content-max-width)*2/3)]&quot;&gt;&lt;/td&gt;&lt;/tr&gt;&lt;/tbody&gt;&lt;/table&gt;" style="whiteSpace=wrap;html=1;" parent="3" vertex="1">
          <mxGeometry x="187.5" y="408" width="72.5" height="48" as="geometry" />
        </mxCell>
        <mxCell id="UKsslnW1uW5sjIxQK_6J-105" value="&lt;table&gt;&lt;tbody&gt;&lt;tr&gt;&lt;td data-end=&quot;2388&quot; data-start=&quot;2359&quot; class=&quot;max-w-[calc(var(--thread-content-max-width)*2/3)]&quot;&gt;Show &quot;No Classrooms Found&quot;&lt;/td&gt;&lt;/tr&gt;&lt;/tbody&gt;&lt;/table&gt;&lt;table&gt;&lt;tbody&gt;&lt;tr&gt;&lt;td data-end=&quot;2404&quot; data-start=&quot;2388&quot; class=&quot;max-w-[calc(var(--thread-content-max-width)*2/3)]&quot;&gt;&lt;/td&gt;&lt;/tr&gt;&lt;/tbody&gt;&lt;/table&gt;" style="whiteSpace=wrap;html=1;" parent="3" vertex="1">
          <mxGeometry x="90" y="462" width="75" height="54" as="geometry" />
        </mxCell>
        <mxCell id="UKsslnW1uW5sjIxQK_6J-107" value="" style="whiteSpace=wrap;html=1;" parent="3" vertex="1">
          <mxGeometry x="15" y="131" width="120" height="60" as="geometry" />
        </mxCell>
        <mxCell id="UKsslnW1uW5sjIxQK_6J-91" value="&lt;table&gt;&lt;tbody&gt;&lt;tr&gt;&lt;td data-end=&quot;2086&quot; data-start=&quot;2063&quot; class=&quot;max-w-[calc(var(--thread-content-max-width)*2/3)]&quot;&gt;Enter Search Filters&lt;/td&gt;&lt;/tr&gt;&lt;/tbody&gt;&lt;/table&gt;&lt;table&gt;&lt;tbody&gt;&lt;tr&gt;&lt;td data-end=&quot;2099&quot; data-start=&quot;2086&quot; class=&quot;max-w-[calc(var(--thread-content-max-width)*2/3)]&quot;&gt;&lt;/td&gt;&lt;/tr&gt;&lt;/tbody&gt;&lt;/table&gt;" style="whiteSpace=wrap;html=1;" parent="3" vertex="1">
          <mxGeometry x="15" y="131" width="120" height="60" as="geometry" />
        </mxCell>
        <mxCell id="FkI9DOUWdkT_tzKeIRPb-15" style="edgeStyle=orthogonalEdgeStyle;rounded=0;orthogonalLoop=1;jettySize=auto;html=1;entryX=0.125;entryY=1.017;entryDx=0;entryDy=0;entryPerimeter=0;" edge="1" parent="3" source="UKsslnW1uW5sjIxQK_6J-105" target="UKsslnW1uW5sjIxQK_6J-91">
          <mxGeometry relative="1" as="geometry">
            <Array as="points">
              <mxPoint x="30" y="489" />
            </Array>
          </mxGeometry>
        </mxCell>
        <mxCell id="2" value="Register" style="swimlane;whiteSpace=wrap" parent="1" vertex="1">
          <mxGeometry x="60" y="100" width="440" height="690" as="geometry" />
        </mxCell>
        <mxCell id="UKsslnW1uW5sjIxQK_6J-46" style="edgeStyle=orthogonalEdgeStyle;rounded=0;orthogonalLoop=1;jettySize=auto;html=1;" parent="2" target="UKsslnW1uW5sjIxQK_6J-43" edge="1">
          <mxGeometry relative="1" as="geometry">
            <mxPoint x="203" y="74" as="sourcePoint" />
          </mxGeometry>
        </mxCell>
        <mxCell id="5" value="Register Page Button Click" style="ellipse;shape=startState;fillColor=#000000;strokeColor=#ff0000;fontColor=light-dark(#000000,#000000);" parent="2" vertex="1">
          <mxGeometry x="128" y="34" width="150" height="40" as="geometry" />
        </mxCell>
        <mxCell id="FkI9DOUWdkT_tzKeIRPb-13" style="edgeStyle=orthogonalEdgeStyle;rounded=0;orthogonalLoop=1;jettySize=auto;html=1;entryX=0.5;entryY=0;entryDx=0;entryDy=0;" edge="1" parent="2" source="UKsslnW1uW5sjIxQK_6J-43" target="UKsslnW1uW5sjIxQK_6J-53">
          <mxGeometry relative="1" as="geometry" />
        </mxCell>
        <mxCell id="UKsslnW1uW5sjIxQK_6J-43" value="&lt;table&gt;&lt;tbody&gt;&lt;tr&gt;&lt;td data-end=&quot;331&quot; data-start=&quot;306&quot; class=&quot;max-w-[calc(var(--thread-content-max-width)*2/3)]&quot;&gt;Open Registration interface&lt;/td&gt;&lt;/tr&gt;&lt;/tbody&gt;&lt;/table&gt;&lt;table&gt;&lt;tbody&gt;&lt;tr&gt;&lt;td data-end=&quot;362&quot; data-start=&quot;331&quot; class=&quot;max-w-[calc(var(--thread-content-max-width)*2/3)]&quot;&gt;&lt;/td&gt;&lt;/tr&gt;&lt;/tbody&gt;&lt;/table&gt;" style="rounded=1;whiteSpace=wrap;html=1;" parent="2" vertex="1">
          <mxGeometry x="150.5" y="114" width="105" height="40" as="geometry" />
        </mxCell>
        <mxCell id="UKsslnW1uW5sjIxQK_6J-59" style="edgeStyle=orthogonalEdgeStyle;rounded=0;orthogonalLoop=1;jettySize=auto;html=1;" parent="2" source="UKsslnW1uW5sjIxQK_6J-53" target="UKsslnW1uW5sjIxQK_6J-54" edge="1">
          <mxGeometry relative="1" as="geometry" />
        </mxCell>
        <mxCell id="UKsslnW1uW5sjIxQK_6J-53" value="&lt;table&gt;&lt;tbody&gt;&lt;tr&gt;&lt;td data-end=&quot;434&quot; data-start=&quot;402&quot; class=&quot;max-w-[calc(var(--thread-content-max-width)*2/3)]&quot;&gt;Fill in Name, Email, Password&lt;/td&gt;&lt;/tr&gt;&lt;/tbody&gt;&lt;/table&gt;&lt;table&gt;&lt;tbody&gt;&lt;tr&gt;&lt;td data-end=&quot;454&quot; data-start=&quot;434&quot; class=&quot;max-w-[calc(var(--thread-content-max-width)*2/3)]&quot;&gt;&lt;/td&gt;&lt;/tr&gt;&lt;/tbody&gt;&lt;/table&gt;" style="rounded=1;whiteSpace=wrap;html=1;" parent="2" vertex="1">
          <mxGeometry x="255.5" y="210" width="100" height="40" as="geometry" />
        </mxCell>
        <mxCell id="FkI9DOUWdkT_tzKeIRPb-6" value="" style="edgeStyle=orthogonalEdgeStyle;rounded=0;orthogonalLoop=1;jettySize=auto;html=1;" edge="1" parent="2" source="UKsslnW1uW5sjIxQK_6J-54" target="FkI9DOUWdkT_tzKeIRPb-5">
          <mxGeometry relative="1" as="geometry" />
        </mxCell>
        <mxCell id="UKsslnW1uW5sjIxQK_6J-54" value="&lt;table&gt;&lt;tbody&gt;&lt;tr&gt;&lt;td data-end=&quot;491&quot; data-start=&quot;474&quot; class=&quot;max-w-[calc(var(--thread-content-max-width)*2/3)]&quot;&gt;Click Register&lt;/td&gt;&lt;/tr&gt;&lt;/tbody&gt;&lt;/table&gt;&lt;table&gt;&lt;tbody&gt;&lt;tr&gt;&lt;td data-end=&quot;525&quot; data-start=&quot;491&quot; class=&quot;max-w-[calc(var(--thread-content-max-width)*2/3)]&quot;&gt;&lt;/td&gt;&lt;/tr&gt;&lt;/tbody&gt;&lt;/table&gt;" style="rounded=1;whiteSpace=wrap;html=1;" parent="2" vertex="1">
          <mxGeometry x="88" y="210" width="105" height="40" as="geometry" />
        </mxCell>
        <mxCell id="FkI9DOUWdkT_tzKeIRPb-55" style="edgeStyle=orthogonalEdgeStyle;rounded=0;orthogonalLoop=1;jettySize=auto;html=1;entryX=0.529;entryY=0.088;entryDx=0;entryDy=0;entryPerimeter=0;exitX=1;exitY=0.5;exitDx=0;exitDy=0;" edge="1" parent="2" source="UKsslnW1uW5sjIxQK_6J-56">
          <mxGeometry relative="1" as="geometry">
            <mxPoint x="355.49999999999994" y="497.03999999999996" as="targetPoint" />
            <mxPoint x="265.68" y="460" as="sourcePoint" />
            <Array as="points">
              <mxPoint x="350" y="440" />
              <mxPoint x="350" y="470" />
              <mxPoint x="356" y="470" />
            </Array>
          </mxGeometry>
        </mxCell>
        <mxCell id="UKsslnW1uW5sjIxQK_6J-56" value="&lt;table&gt;&lt;tbody&gt;&lt;tr&gt;&lt;td data-end=&quot;577&quot; data-start=&quot;545&quot; class=&quot;max-w-[calc(var(--thread-content-max-width)*2/3)]&quot;&gt;Validate Inputs (Server-side)&lt;/td&gt;&lt;/tr&gt;&lt;/tbody&gt;&lt;/table&gt;&lt;table&gt;&lt;tbody&gt;&lt;tr&gt;&lt;td data-end=&quot;599&quot; data-start=&quot;577&quot; class=&quot;max-w-[calc(var(--thread-content-max-width)*2/3)]&quot;&gt;&lt;/td&gt;&lt;/tr&gt;&lt;/tbody&gt;&lt;/table&gt;" style="rounded=1;whiteSpace=wrap;html=1;" parent="2" vertex="1">
          <mxGeometry x="220" y="420" width="105" height="40" as="geometry" />
        </mxCell>
        <mxCell id="UKsslnW1uW5sjIxQK_6J-72" style="edgeStyle=orthogonalEdgeStyle;rounded=0;orthogonalLoop=1;jettySize=auto;html=1;" parent="2" source="UKsslnW1uW5sjIxQK_6J-57" target="UKsslnW1uW5sjIxQK_6J-56" edge="1">
          <mxGeometry relative="1" as="geometry" />
        </mxCell>
        <mxCell id="UKsslnW1uW5sjIxQK_6J-57" value="Post Inputs To Server" style="rounded=1;whiteSpace=wrap;html=1;" parent="2" vertex="1">
          <mxGeometry x="75" y="420" width="105" height="40" as="geometry" />
        </mxCell>
        <mxCell id="UKsslnW1uW5sjIxQK_6J-87" value="" style="edgeStyle=orthogonalEdgeStyle;curved=1;rounded=0;orthogonalLoop=1;jettySize=auto;html=1;" parent="2" source="UKsslnW1uW5sjIxQK_6J-66" target="UKsslnW1uW5sjIxQK_6J-86" edge="1">
          <mxGeometry relative="1" as="geometry" />
        </mxCell>
        <mxCell id="FkI9DOUWdkT_tzKeIRPb-59" style="edgeStyle=orthogonalEdgeStyle;rounded=0;orthogonalLoop=1;jettySize=auto;html=1;entryX=1;entryY=0.5;entryDx=0;entryDy=0;" edge="1" parent="2" source="UKsslnW1uW5sjIxQK_6J-66" target="UKsslnW1uW5sjIxQK_6J-68">
          <mxGeometry relative="1" as="geometry" />
        </mxCell>
        <mxCell id="UKsslnW1uW5sjIxQK_6J-66" value="Validation Result&amp;nbsp;" style="rhombus;whiteSpace=wrap;html=1;rounded=1;" parent="2" vertex="1">
          <mxGeometry x="320" y="490" width="80" height="80" as="geometry" />
        </mxCell>
        <mxCell id="UKsslnW1uW5sjIxQK_6J-83" style="edgeStyle=orthogonalEdgeStyle;curved=1;rounded=0;orthogonalLoop=1;jettySize=auto;html=1;entryX=0;entryY=0.5;entryDx=0;entryDy=0;" parent="2" source="UKsslnW1uW5sjIxQK_6J-68" target="UKsslnW1uW5sjIxQK_6J-43" edge="1">
          <mxGeometry relative="1" as="geometry">
            <Array as="points">
              <mxPoint x="20" y="452" />
              <mxPoint x="20" y="124" />
              <mxPoint x="151" y="124" />
            </Array>
          </mxGeometry>
        </mxCell>
        <mxCell id="UKsslnW1uW5sjIxQK_6J-68" value="Show Error&lt;div&gt;&lt;br&gt;&lt;/div&gt;" style="whiteSpace=wrap;html=1;rounded=1;" parent="2" vertex="1">
          <mxGeometry x="18" y="500" width="102" height="40" as="geometry" />
        </mxCell>
        <mxCell id="UKsslnW1uW5sjIxQK_6J-86" value="Create Account" style="whiteSpace=wrap;html=1;rounded=1;" parent="2" vertex="1">
          <mxGeometry x="300" y="610" width="120" height="60" as="geometry" />
        </mxCell>
        <mxCell id="FkI9DOUWdkT_tzKeIRPb-9" style="edgeStyle=orthogonalEdgeStyle;rounded=0;orthogonalLoop=1;jettySize=auto;html=1;" edge="1" parent="2" source="FkI9DOUWdkT_tzKeIRPb-5" target="UKsslnW1uW5sjIxQK_6J-53">
          <mxGeometry relative="1" as="geometry" />
        </mxCell>
        <mxCell id="FkI9DOUWdkT_tzKeIRPb-10" value="false&lt;div&gt;&lt;br&gt;&lt;/div&gt;" style="edgeLabel;html=1;align=center;verticalAlign=middle;resizable=0;points=[];" vertex="1" connectable="0" parent="FkI9DOUWdkT_tzKeIRPb-9">
          <mxGeometry x="-0.2755" y="7" relative="1" as="geometry">
            <mxPoint as="offset" />
          </mxGeometry>
        </mxCell>
        <mxCell id="FkI9DOUWdkT_tzKeIRPb-5" value="&lt;table&gt;&lt;tbody&gt;&lt;tr&gt;&lt;td data-end=&quot;577&quot; data-start=&quot;545&quot; class=&quot;max-w-[calc(var(--thread-content-max-width)*2/3)]&quot;&gt;Validate Inputs (Client-side)&lt;/td&gt;&lt;/tr&gt;&lt;/tbody&gt;&lt;/table&gt;&lt;table&gt;&lt;tbody&gt;&lt;tr&gt;&lt;td data-end=&quot;599&quot; data-start=&quot;577&quot; class=&quot;max-w-[calc(var(--thread-content-max-width)*2/3)]&quot;&gt;&lt;/td&gt;&lt;/tr&gt;&lt;/tbody&gt;&lt;/table&gt;" style="rhombus;whiteSpace=wrap;html=1;rounded=1;" vertex="1" parent="2">
          <mxGeometry x="100" y="293" width="80" height="80" as="geometry" />
        </mxCell>
        <mxCell id="FkI9DOUWdkT_tzKeIRPb-7" style="edgeStyle=orthogonalEdgeStyle;rounded=0;orthogonalLoop=1;jettySize=auto;html=1;entryX=0.619;entryY=-0.05;entryDx=0;entryDy=0;entryPerimeter=0;" edge="1" parent="2" source="FkI9DOUWdkT_tzKeIRPb-5" target="UKsslnW1uW5sjIxQK_6J-57">
          <mxGeometry relative="1" as="geometry" />
        </mxCell>
        <mxCell id="FkI9DOUWdkT_tzKeIRPb-8" value="true" style="edgeLabel;html=1;align=center;verticalAlign=middle;resizable=0;points=[];" vertex="1" connectable="0" parent="FkI9DOUWdkT_tzKeIRPb-7">
          <mxGeometry x="-0.1378" y="2" relative="1" as="geometry">
            <mxPoint as="offset" />
          </mxGeometry>
        </mxCell>
        <mxCell id="FkI9DOUWdkT_tzKeIRPb-14" style="edgeStyle=orthogonalEdgeStyle;rounded=0;orthogonalLoop=1;jettySize=auto;html=1;exitX=0.5;exitY=1;exitDx=0;exitDy=0;" edge="1" parent="2" source="UKsslnW1uW5sjIxQK_6J-56" target="UKsslnW1uW5sjIxQK_6J-56">
          <mxGeometry relative="1" as="geometry" />
        </mxCell>
        <mxCell id="UKsslnW1uW5sjIxQK_6J-84" value="False" style="text;html=1;align=center;verticalAlign=middle;resizable=0;points=[];autosize=1;strokeColor=none;fillColor=none;" parent="1" vertex="1">
          <mxGeometry x="185" y="550" width="50" height="30" as="geometry" />
        </mxCell>
        <mxCell id="FkI9DOUWdkT_tzKeIRPb-17" value="Login" style="swimlane;whiteSpace=wrap" vertex="1" parent="1">
          <mxGeometry x="630" y="110" width="440" height="690" as="geometry" />
        </mxCell>
        <mxCell id="FkI9DOUWdkT_tzKeIRPb-18" style="edgeStyle=orthogonalEdgeStyle;rounded=0;orthogonalLoop=1;jettySize=auto;html=1;" edge="1" parent="FkI9DOUWdkT_tzKeIRPb-17" target="FkI9DOUWdkT_tzKeIRPb-21">
          <mxGeometry relative="1" as="geometry">
            <mxPoint x="203" y="74" as="sourcePoint" />
          </mxGeometry>
        </mxCell>
        <mxCell id="FkI9DOUWdkT_tzKeIRPb-19" value="Login Page Button Click" style="ellipse;shape=startState;fillColor=#000000;strokeColor=#ff0000;fontColor=light-dark(#000000,#000000);" vertex="1" parent="FkI9DOUWdkT_tzKeIRPb-17">
          <mxGeometry x="128" y="34" width="150" height="40" as="geometry" />
        </mxCell>
        <mxCell id="FkI9DOUWdkT_tzKeIRPb-20" style="edgeStyle=orthogonalEdgeStyle;rounded=0;orthogonalLoop=1;jettySize=auto;html=1;entryX=0.5;entryY=0;entryDx=0;entryDy=0;" edge="1" parent="FkI9DOUWdkT_tzKeIRPb-17" source="FkI9DOUWdkT_tzKeIRPb-21" target="FkI9DOUWdkT_tzKeIRPb-23">
          <mxGeometry relative="1" as="geometry" />
        </mxCell>
        <mxCell id="FkI9DOUWdkT_tzKeIRPb-21" value="&lt;table&gt;&lt;tbody&gt;&lt;tr&gt;&lt;td data-end=&quot;331&quot; data-start=&quot;306&quot; class=&quot;max-w-[calc(var(--thread-content-max-width)*2/3)]&quot;&gt;Open Loign interface&lt;/td&gt;&lt;/tr&gt;&lt;/tbody&gt;&lt;/table&gt;&lt;table&gt;&lt;tbody&gt;&lt;tr&gt;&lt;td data-end=&quot;362&quot; data-start=&quot;331&quot; class=&quot;max-w-[calc(var(--thread-content-max-width)*2/3)]&quot;&gt;&lt;/td&gt;&lt;/tr&gt;&lt;/tbody&gt;&lt;/table&gt;" style="rounded=1;whiteSpace=wrap;html=1;" vertex="1" parent="FkI9DOUWdkT_tzKeIRPb-17">
          <mxGeometry x="150.5" y="114" width="105" height="40" as="geometry" />
        </mxCell>
        <mxCell id="FkI9DOUWdkT_tzKeIRPb-22" style="edgeStyle=orthogonalEdgeStyle;rounded=0;orthogonalLoop=1;jettySize=auto;html=1;" edge="1" parent="FkI9DOUWdkT_tzKeIRPb-17" source="FkI9DOUWdkT_tzKeIRPb-23" target="FkI9DOUWdkT_tzKeIRPb-25">
          <mxGeometry relative="1" as="geometry" />
        </mxCell>
        <mxCell id="FkI9DOUWdkT_tzKeIRPb-23" value="&lt;table&gt;&lt;tbody&gt;&lt;tr&gt;&lt;td data-end=&quot;434&quot; data-start=&quot;402&quot; class=&quot;max-w-[calc(var(--thread-content-max-width)*2/3)]&quot;&gt;Fill in Name/ Email, Password&lt;/td&gt;&lt;/tr&gt;&lt;/tbody&gt;&lt;/table&gt;&lt;table&gt;&lt;tbody&gt;&lt;tr&gt;&lt;td data-end=&quot;454&quot; data-start=&quot;434&quot; class=&quot;max-w-[calc(var(--thread-content-max-width)*2/3)]&quot;&gt;&lt;/td&gt;&lt;/tr&gt;&lt;/tbody&gt;&lt;/table&gt;" style="rounded=1;whiteSpace=wrap;html=1;" vertex="1" parent="FkI9DOUWdkT_tzKeIRPb-17">
          <mxGeometry x="255.5" y="210" width="100" height="40" as="geometry" />
        </mxCell>
        <mxCell id="FkI9DOUWdkT_tzKeIRPb-24" value="" style="edgeStyle=orthogonalEdgeStyle;rounded=0;orthogonalLoop=1;jettySize=auto;html=1;" edge="1" parent="FkI9DOUWdkT_tzKeIRPb-17" source="FkI9DOUWdkT_tzKeIRPb-25" target="FkI9DOUWdkT_tzKeIRPb-39">
          <mxGeometry relative="1" as="geometry" />
        </mxCell>
        <mxCell id="FkI9DOUWdkT_tzKeIRPb-25" value="&lt;table&gt;&lt;tbody&gt;&lt;tr&gt;&lt;td data-end=&quot;491&quot; data-start=&quot;474&quot; class=&quot;max-w-[calc(var(--thread-content-max-width)*2/3)]&quot;&gt;Click login&lt;/td&gt;&lt;/tr&gt;&lt;/tbody&gt;&lt;/table&gt;&lt;table&gt;&lt;tbody&gt;&lt;tr&gt;&lt;td data-end=&quot;525&quot; data-start=&quot;491&quot; class=&quot;max-w-[calc(var(--thread-content-max-width)*2/3)]&quot;&gt;&lt;/td&gt;&lt;/tr&gt;&lt;/tbody&gt;&lt;/table&gt;" style="rounded=1;whiteSpace=wrap;html=1;" vertex="1" parent="FkI9DOUWdkT_tzKeIRPb-17">
          <mxGeometry x="88" y="210" width="105" height="40" as="geometry" />
        </mxCell>
        <mxCell id="FkI9DOUWdkT_tzKeIRPb-26" style="edgeStyle=orthogonalEdgeStyle;rounded=0;orthogonalLoop=1;jettySize=auto;html=1;" edge="1" parent="FkI9DOUWdkT_tzKeIRPb-17" source="FkI9DOUWdkT_tzKeIRPb-27" target="FkI9DOUWdkT_tzKeIRPb-33">
          <mxGeometry relative="1" as="geometry" />
        </mxCell>
        <mxCell id="FkI9DOUWdkT_tzKeIRPb-27" value="&lt;table&gt;&lt;tbody&gt;&lt;tr&gt;&lt;td data-end=&quot;577&quot; data-start=&quot;545&quot; class=&quot;max-w-[calc(var(--thread-content-max-width)*2/3)]&quot;&gt;Validate Inputs (Server-side)&lt;/td&gt;&lt;/tr&gt;&lt;/tbody&gt;&lt;/table&gt;&lt;table&gt;&lt;tbody&gt;&lt;tr&gt;&lt;td data-end=&quot;599&quot; data-start=&quot;577&quot; class=&quot;max-w-[calc(var(--thread-content-max-width)*2/3)]&quot;&gt;&lt;/td&gt;&lt;/tr&gt;&lt;/tbody&gt;&lt;/table&gt;" style="rounded=1;whiteSpace=wrap;html=1;" vertex="1" parent="FkI9DOUWdkT_tzKeIRPb-17">
          <mxGeometry x="88" y="510" width="105" height="40" as="geometry" />
        </mxCell>
        <mxCell id="FkI9DOUWdkT_tzKeIRPb-28" style="edgeStyle=orthogonalEdgeStyle;rounded=0;orthogonalLoop=1;jettySize=auto;html=1;" edge="1" parent="FkI9DOUWdkT_tzKeIRPb-17" source="FkI9DOUWdkT_tzKeIRPb-29" target="FkI9DOUWdkT_tzKeIRPb-27">
          <mxGeometry relative="1" as="geometry" />
        </mxCell>
        <mxCell id="FkI9DOUWdkT_tzKeIRPb-29" value="Post inputs to Server" style="rounded=1;whiteSpace=wrap;html=1;" vertex="1" parent="FkI9DOUWdkT_tzKeIRPb-17">
          <mxGeometry x="88" y="420" width="105" height="40" as="geometry" />
        </mxCell>
        <mxCell id="FkI9DOUWdkT_tzKeIRPb-48" style="edgeStyle=orthogonalEdgeStyle;rounded=0;orthogonalLoop=1;jettySize=auto;html=1;entryX=0.5;entryY=1;entryDx=0;entryDy=0;" edge="1" parent="FkI9DOUWdkT_tzKeIRPb-17" source="FkI9DOUWdkT_tzKeIRPb-33" target="FkI9DOUWdkT_tzKeIRPb-43">
          <mxGeometry relative="1" as="geometry" />
        </mxCell>
        <mxCell id="FkI9DOUWdkT_tzKeIRPb-52" value="false" style="edgeLabel;html=1;align=center;verticalAlign=middle;resizable=0;points=[];" vertex="1" connectable="0" parent="FkI9DOUWdkT_tzKeIRPb-48">
          <mxGeometry x="-0.0971" y="-4" relative="1" as="geometry">
            <mxPoint x="-4" as="offset" />
          </mxGeometry>
        </mxCell>
        <mxCell id="FkI9DOUWdkT_tzKeIRPb-33" value="Validation Result&amp;nbsp;" style="rhombus;whiteSpace=wrap;html=1;rounded=1;" vertex="1" parent="FkI9DOUWdkT_tzKeIRPb-17">
          <mxGeometry x="265.5" y="490" width="80" height="80" as="geometry" />
        </mxCell>
        <mxCell id="FkI9DOUWdkT_tzKeIRPb-44" value="" style="edgeStyle=orthogonalEdgeStyle;rounded=0;orthogonalLoop=1;jettySize=auto;html=1;" edge="1" parent="FkI9DOUWdkT_tzKeIRPb-17" source="FkI9DOUWdkT_tzKeIRPb-39" target="FkI9DOUWdkT_tzKeIRPb-43">
          <mxGeometry relative="1" as="geometry" />
        </mxCell>
        <mxCell id="FkI9DOUWdkT_tzKeIRPb-46" value="false&lt;div&gt;&lt;br&gt;&lt;/div&gt;" style="edgeLabel;html=1;align=center;verticalAlign=middle;resizable=0;points=[];" vertex="1" connectable="0" parent="FkI9DOUWdkT_tzKeIRPb-44">
          <mxGeometry x="-0.2061" y="1" relative="1" as="geometry">
            <mxPoint as="offset" />
          </mxGeometry>
        </mxCell>
        <mxCell id="FkI9DOUWdkT_tzKeIRPb-51" style="edgeStyle=orthogonalEdgeStyle;rounded=0;orthogonalLoop=1;jettySize=auto;html=1;" edge="1" parent="FkI9DOUWdkT_tzKeIRPb-17" source="FkI9DOUWdkT_tzKeIRPb-39" target="FkI9DOUWdkT_tzKeIRPb-29">
          <mxGeometry relative="1" as="geometry" />
        </mxCell>
        <mxCell id="FkI9DOUWdkT_tzKeIRPb-53" value="true" style="edgeLabel;html=1;align=center;verticalAlign=middle;resizable=0;points=[];" vertex="1" connectable="0" parent="FkI9DOUWdkT_tzKeIRPb-51">
          <mxGeometry x="-0.6772" y="-5" relative="1" as="geometry">
            <mxPoint x="5" y="9" as="offset" />
          </mxGeometry>
        </mxCell>
        <mxCell id="FkI9DOUWdkT_tzKeIRPb-39" value="&lt;table&gt;&lt;tbody&gt;&lt;tr&gt;&lt;td data-end=&quot;577&quot; data-start=&quot;545&quot; class=&quot;max-w-[calc(var(--thread-content-max-width)*2/3)]&quot;&gt;Validate Inputs (Client-side)&lt;/td&gt;&lt;/tr&gt;&lt;/tbody&gt;&lt;/table&gt;&lt;table&gt;&lt;tbody&gt;&lt;tr&gt;&lt;td data-end=&quot;599&quot; data-start=&quot;577&quot; class=&quot;max-w-[calc(var(--thread-content-max-width)*2/3)]&quot;&gt;&lt;/td&gt;&lt;/tr&gt;&lt;/tbody&gt;&lt;/table&gt;" style="rhombus;whiteSpace=wrap;html=1;rounded=1;" vertex="1" parent="FkI9DOUWdkT_tzKeIRPb-17">
          <mxGeometry x="100" y="293" width="80" height="80" as="geometry" />
        </mxCell>
        <mxCell id="FkI9DOUWdkT_tzKeIRPb-42" style="edgeStyle=orthogonalEdgeStyle;rounded=0;orthogonalLoop=1;jettySize=auto;html=1;exitX=0.5;exitY=1;exitDx=0;exitDy=0;" edge="1" parent="FkI9DOUWdkT_tzKeIRPb-17" source="FkI9DOUWdkT_tzKeIRPb-27" target="FkI9DOUWdkT_tzKeIRPb-27">
          <mxGeometry relative="1" as="geometry" />
        </mxCell>
        <mxCell id="FkI9DOUWdkT_tzKeIRPb-45" style="edgeStyle=orthogonalEdgeStyle;rounded=0;orthogonalLoop=1;jettySize=auto;html=1;" edge="1" parent="FkI9DOUWdkT_tzKeIRPb-17" source="FkI9DOUWdkT_tzKeIRPb-43" target="FkI9DOUWdkT_tzKeIRPb-23">
          <mxGeometry relative="1" as="geometry" />
        </mxCell>
        <mxCell id="FkI9DOUWdkT_tzKeIRPb-43" value="Show Error" style="whiteSpace=wrap;html=1;rounded=1;" vertex="1" parent="FkI9DOUWdkT_tzKeIRPb-17">
          <mxGeometry x="245.5" y="303" width="120" height="60" as="geometry" />
        </mxCell>
        <mxCell id="FkI9DOUWdkT_tzKeIRPb-61" style="edgeStyle=orthogonalEdgeStyle;rounded=0;orthogonalLoop=1;jettySize=auto;html=1;entryX=0;entryY=0.5;entryDx=0;entryDy=0;" edge="1" parent="1" source="UKsslnW1uW5sjIxQK_6J-86" target="FkI9DOUWdkT_tzKeIRPb-21">
          <mxGeometry relative="1" as="geometry">
            <mxPoint x="570" y="240" as="targetPoint" />
            <Array as="points">
              <mxPoint x="560" y="740" />
              <mxPoint x="560" y="244" />
            </Array>
          </mxGeometry>
        </mxCell>
        <mxCell id="FkI9DOUWdkT_tzKeIRPb-63" style="edgeStyle=orthogonalEdgeStyle;rounded=0;orthogonalLoop=1;jettySize=auto;html=1;entryX=0;entryY=0.5;entryDx=0;entryDy=0;" edge="1" parent="1" source="FkI9DOUWdkT_tzKeIRPb-33" target="UKsslnW1uW5sjIxQK_6J-88">
          <mxGeometry relative="1" as="geometry">
            <mxPoint x="1120" y="220" as="targetPoint" />
          </mxGeometry>
        </mxCell>
      </root>
    </mxGraphModel>
  </diagram>
</mxfile>
